<svg width="200" height="23" viewBox="0 0 200 23" fill="none" xmlns="http://www.w3.org/2000/svg">
<rect width="200" height="22.6866" fill="black" fill-opacity="0"/>
<rect width="200.001" height="22.6866" fill="black" fill-opacity="0"/>
<path fill-rule="evenodd" clip-rule="evenodd" d="M39.7441 4.06587C41.9359 4.06587 43.7404 4.60749 45.1576 5.69075C46.5748 6.77401 47.4565 8.24056 47.8025 10.0904H43.3284C43.0317 9.45714 42.5786 8.95301 41.9688 8.57804C41.3591 8.20307 40.6258 8.01558 39.7688 8.01558C38.434 8.01558 37.3628 8.46971 36.5553 9.37798C35.7478 10.2863 35.3441 11.5153 35.3441 13.0652C35.3441 14.7484 35.7684 16.04 36.6171 16.9399C37.4658 17.8399 38.6729 18.2898 40.2385 18.2898C41.2437 18.2898 42.1254 18.0107 42.8834 17.4524C43.6415 16.8941 44.1771 16.0983 44.4902 15.0651H39.1508V11.9903H48.025V16.215C47.6954 17.2482 47.1681 18.2065 46.443 19.0898C45.7179 19.973 44.7909 20.6896 43.6621 21.2396C42.5332 21.7896 41.2437 22.0645 39.7935 22.0645C38.0302 22.0645 36.4894 21.6854 35.1711 20.9271C33.8527 20.1688 32.8351 19.1064 32.1183 17.7399C31.4014 16.3733 31.043 14.8151 31.043 13.0652C31.043 11.3153 31.4014 9.75713 32.1183 8.39055C32.8351 7.02398 33.8486 5.96157 35.1587 5.20329C36.4688 4.44501 37.9973 4.06587 39.7441 4.06587ZM55.2426 10.5904C55.7699 9.74045 56.4497 9.06551 57.2819 8.56554C58.1141 8.06558 59.0164 7.8156 59.9887 7.8156V12.3903H58.7774C57.6568 12.3903 56.7875 12.6319 56.1696 13.1152C55.5516 13.5985 55.2426 14.4151 55.2426 15.565V21.9146H51.0156V7.96559H55.2426V10.5904ZM67.6292 7.7906C68.6839 7.7906 69.5902 8.03225 70.3483 8.51555C71.1063 8.99885 71.6666 9.65713 72.0292 10.4904V7.96559H76.2314V21.9146H72.0292V19.3898C71.6666 20.223 71.1063 20.8813 70.3483 21.3646C69.5902 21.8479 68.6839 22.0896 67.6292 22.0896C66.4921 22.0896 65.4745 21.8021 64.5764 21.2271C63.6782 20.6522 62.9696 19.8231 62.4505 18.7398C61.9314 17.6565 61.6719 16.39 61.6719 14.9401C61.6719 13.4735 61.9314 12.2028 62.4505 11.1279C62.9696 10.0529 63.6782 9.228 64.5764 8.65304C65.4745 8.07808 66.4921 7.7906 67.6292 7.7906ZM68.9884 11.5403C68.082 11.5403 67.3528 11.8403 66.8007 12.4403C66.2487 13.0402 65.9727 13.8735 65.9727 14.9401C65.9727 16.0067 66.2487 16.8399 66.8007 17.4399C67.3528 18.0399 68.082 18.3398 68.9884 18.3398C69.8783 18.3398 70.6075 18.0315 71.176 17.4149C71.7446 16.7983 72.0288 15.9733 72.0288 14.9401C72.0288 13.8902 71.7446 13.0611 71.176 12.4528C70.6075 11.8445 69.8783 11.5403 68.9884 11.5403ZM85.0042 7.7906C86.0589 7.7906 86.9652 8.03225 87.7233 8.51555C88.4813 8.99885 89.0334 9.65713 89.3795 10.4904V3.41592H93.6064V21.9146H89.3795V19.3898C89.0334 20.223 88.4813 20.8813 87.7233 21.3646C86.9652 21.8479 86.0589 22.0896 85.0042 22.0896C83.8671 22.0896 82.8495 21.8021 81.9514 21.2271C81.0532 20.6522 80.3446 19.8231 79.8255 18.7398C79.3064 17.6565 79.0469 16.39 79.0469 14.9401C79.0469 13.4735 79.3064 12.2028 79.8255 11.1279C80.3446 10.0529 81.0532 9.228 81.9514 8.65304C82.8495 8.07808 83.8671 7.7906 85.0042 7.7906ZM86.3634 11.5403C85.457 11.5403 84.7278 11.8403 84.1757 12.4403C83.6237 13.0402 83.3477 13.8735 83.3477 14.9401C83.3477 16.0067 83.6237 16.8399 84.1757 17.4399C84.7278 18.0399 85.457 18.3398 86.3634 18.3398C87.2533 18.3398 87.9825 18.0315 88.551 17.4149C89.1196 16.7983 89.4038 15.9733 89.4038 14.9401C89.4038 13.8902 89.1196 13.0611 88.551 12.4528C87.9825 11.8445 87.2533 11.5403 86.3634 11.5403ZM110.244 14.5651C110.244 14.9151 110.203 15.2984 110.12 15.715H100.554C100.603 16.7649 100.867 17.5191 101.345 17.9774C101.823 18.4357 102.433 18.6648 103.174 18.6648C103.8 18.6648 104.319 18.5065 104.731 18.1898C105.143 17.8732 105.415 17.4649 105.547 16.9649H110.021C109.84 17.9482 109.445 18.8273 108.835 19.6022C108.225 20.3772 107.451 20.9855 106.511 21.4271C105.572 21.8687 104.525 22.0896 103.372 22.0896C102.021 22.0896 100.822 21.8021 99.7752 21.2271C98.7288 20.6522 97.9089 19.8231 97.3157 18.7398C96.7224 17.6565 96.4258 16.39 96.4258 14.9401C96.4258 13.4735 96.7183 12.2028 97.3033 11.1279C97.8883 10.0529 98.7082 9.228 99.7629 8.65304C100.818 8.07808 102.021 7.7906 103.372 7.7906C104.74 7.7906 105.943 8.07391 106.981 8.64054C108.019 9.20717 108.822 10.0029 109.391 11.0279C109.96 12.0528 110.244 13.2319 110.244 14.5651ZM105.967 13.9152C105.983 12.9986 105.74 12.3111 105.238 11.8528C104.735 11.3945 104.113 11.1654 103.371 11.1654C102.597 11.1654 101.954 11.3987 101.443 11.8653C100.932 12.3319 100.644 13.0152 100.578 13.9152H105.967ZM132.714 4.36586V21.9146H128.487V10.9404L124.73 21.9146H121.071L117.289 10.9154V21.9146H113.062V4.36586H118.229L122.95 16.59L127.573 4.36586H132.714ZM135.852 4.04088C135.852 3.39093 136.082 2.85347 136.544 2.4285C137.005 2.00353 137.615 1.79105 138.373 1.79105C139.131 1.79105 139.741 2.00353 140.202 2.4285C140.664 2.85347 140.894 3.39093 140.894 4.04088C140.894 4.67417 140.664 5.20329 140.202 5.62826C139.741 6.05324 139.131 6.26572 138.373 6.26572C137.615 6.26572 137.005 6.05324 136.544 5.62826C136.082 5.20329 135.852 4.67417 135.852 4.04088ZM140.473 7.96559V21.9146H136.246V7.96559H140.473ZM152.758 7.8156C154.34 7.8156 155.597 8.34889 156.528 9.41548C157.459 10.4821 157.925 11.9486 157.925 13.8152V21.9146H153.698V14.3151C153.698 13.3819 153.455 12.6527 152.968 12.1278C152.482 11.6028 151.836 11.3403 151.028 11.3403C150.171 11.3403 149.491 11.6153 148.989 12.1653C148.486 12.7152 148.235 13.4985 148.235 14.5151V21.9146H144.008V7.96559H148.235V10.5154C148.63 9.68212 149.219 9.02384 150.002 8.54054C150.785 8.05724 151.704 7.8156 152.758 7.8156ZM174.439 14.5651C174.439 14.9151 174.398 15.2984 174.315 15.715H164.749C164.799 16.7649 165.062 17.5191 165.54 17.9774C166.018 18.4357 166.628 18.6648 167.369 18.6648C167.996 18.6648 168.515 18.5065 168.927 18.1898C169.339 17.8732 169.611 17.4649 169.742 16.9649H174.217C174.035 17.9482 173.64 18.8273 173.03 19.6022C172.42 20.3772 171.646 20.9855 170.706 21.4271C169.767 21.8687 168.721 22.0896 167.567 22.0896C166.216 22.0896 165.017 21.8021 163.971 21.2271C162.924 20.6522 162.104 19.8231 161.511 18.7398C160.918 17.6565 160.621 16.39 160.621 14.9401C160.621 13.4735 160.914 12.2028 161.499 11.1279C162.084 10.0529 162.903 9.228 163.958 8.65304C165.013 8.07808 166.216 7.7906 167.567 7.7906C168.935 7.7906 170.138 8.07391 171.176 8.64054C172.214 9.20717 173.018 10.0029 173.586 11.0279C174.155 12.0528 174.439 13.2319 174.439 14.5651ZM170.162 13.9152C170.179 12.9986 169.936 12.3111 169.433 11.8528C168.93 11.3945 168.308 11.1654 167.567 11.1654C166.792 11.1654 166.149 11.3987 165.639 11.8653C165.128 12.3319 164.839 13.0152 164.773 13.9152H170.162ZM181.485 10.5904C182.012 9.74045 182.692 9.06551 183.524 8.56554C184.356 8.06558 185.259 7.8156 186.231 7.8156V12.3903H185.02C183.899 12.3903 183.03 12.6319 182.412 13.1152C181.794 13.5985 181.485 14.4151 181.485 15.565V21.9146H177.258V7.96559H181.485V10.5904ZM193.646 7.7906C195.393 7.7906 196.79 8.23223 197.836 9.11551C198.883 9.99878 199.538 11.1653 199.802 12.6152H195.846C195.731 12.0486 195.472 11.6028 195.068 11.2778C194.664 10.9529 194.157 10.7904 193.548 10.7904C193.07 10.7904 192.707 10.8945 192.46 11.1029C192.213 11.3112 192.089 11.607 192.089 11.9903C192.089 12.4236 192.316 12.7486 192.769 12.9652C193.222 13.1819 193.935 13.3985 194.907 13.6152C195.962 13.8652 196.827 14.1193 197.503 14.3776C198.178 14.6359 198.763 15.0567 199.258 15.64C199.752 16.2233 199.999 17.0066 199.999 17.9899C199.999 18.7898 199.785 19.4981 199.357 20.1147C198.928 20.7313 198.31 21.2146 197.503 21.5646C196.695 21.9146 195.739 22.0896 194.635 22.0896C192.773 22.0896 191.282 21.6729 190.161 20.8396C189.04 20.0064 188.357 18.8148 188.109 17.2649H192.188C192.254 17.8649 192.505 18.3232 192.942 18.6398C193.379 18.9564 193.943 19.1148 194.635 19.1148C195.113 19.1148 195.476 19.0023 195.723 18.7773C195.97 18.5523 196.094 18.2565 196.094 17.8899C196.094 17.4066 195.867 17.0608 195.414 16.8524C194.961 16.6441 194.223 16.4233 193.202 16.19C192.18 15.9733 191.339 15.74 190.68 15.49C190.021 15.2401 189.452 14.8359 188.975 14.2776C188.497 13.7193 188.258 12.9569 188.258 11.9903C188.258 10.7404 188.727 9.72797 189.667 8.95302C190.606 8.17807 191.933 7.7906 193.646 7.7906Z" fill="#19171A"/>
<path fill-rule="evenodd" clip-rule="evenodd" d="M23.2852 22.6866C25.2617 22.6866 26.8672 21.0305 26.8672 18.9877V4.93187L23.2852 0L19.7031 4.93187V18.9877C19.7031 21.0305 21.3086 22.6866 23.2852 22.6866ZM25.4336 5.91823V5.42505L23.2852 2.46593L21.1367 5.42505V5.91823H25.4336ZM21.1367 7.3978V18.9877C21.1367 20.2134 22.0977 21.207 23.2852 21.207C24.4727 21.207 25.4336 20.2134 25.4336 18.9877V7.3978H21.1367Z" fill="#0A0A0A"/>
<rect width="7.16418" height="22.0896" fill="black" fill-opacity="0" transform="translate(10.1484)"/>
<path d="M17.3126 22.0896H10.1484V4.90879L13.7305 0L17.3126 4.90879V22.0896Z" fill="#19171A"/>
<path fill-rule="evenodd" clip-rule="evenodd" d="M14.4477 20.6169H15.8805V5.39967L13.7313 2.45439L11.582 5.39967L11.582 20.6169H13.0149V5.6451H14.4477V20.6169Z" fill="#FFBA00"/>
<path fill-rule="evenodd" clip-rule="evenodd" d="M7.16406 12.3202H6.20703C6.40625 11.9946 6.60547 11.5061 6.80469 10.8548C7.10547 9.87788 7.00391 8.41545 6.50391 7.27797L3.58203 0.597015L0.660156 7.27797C0.160156 8.41545 0.0585938 9.87788 0.359375 10.8548C0.558594 11.5061 0.757812 11.9946 0.957031 12.3202H0V22.0896H7.16406V12.3202ZM1.91016 8.16824L3.03516 4.388L2.86719 8.90094H4.30078L4.12891 4.388L5.25391 8.16824C5.73047 9.87787 5.25391 11.3433 4.53906 12.3202V13.7856H5.73047V20.6241H1.43359V13.7856H2.62891V12.3202C1.91016 11.3433 1.43359 9.87787 1.91016 8.16824Z" fill="#0A0A0A"/>
</svg>
