<svg width="50" height="51" viewBox="0 0 50 51" fill="none" xmlns="http://www.w3.org/2000/svg">
<path fill-rule="evenodd" clip-rule="evenodd" d="M11.0005 17.7988V22.7988C11.0005 23.3511 10.5527 23.7988 10.0005 23.7988C9.44824 23.7988 9.00049 23.3511 9.00049 22.7988V17.7988C9.00049 13.3789 8.23242 6.84912 7.03027 2.0415C6.87256 1.41016 7.3501 0.798828 8.00049 0.798828H38.4766C38.957 0.798828 39.3691 1.14014 39.459 1.61182C40.3755 6.42236 41.0005 13.5508 41.0005 17.7988V22.7988C41.0005 23.3511 40.5527 23.7988 40.0005 23.7988C39.4482 23.7988 39.0005 23.3511 39.0005 22.7988V17.7988C39.0005 13.9048 38.4536 7.44873 37.6426 2.79883H9.26416C10.3359 7.59912 11.0005 13.5908 11.0005 17.7988ZM48 25.7988H44.1514C43.5991 25.7988 43.1514 25.3511 43.1514 24.7988C43.1514 24.6543 43.1821 24.5166 43.2373 24.3926C43.2676 24.3247 43.3052 24.2607 43.3491 24.2017C43.5312 23.957 43.8228 23.7988 44.1514 23.7988H49C49.5522 23.7988 50 24.2466 50 24.7988V44.7988C50 48.1123 47.3135 50.7988 44 50.7988H6C2.68652 50.7988 0 48.1123 0 44.7988V24.7988C0 24.5503 0.0908203 24.3228 0.240723 24.1479C0.424316 23.9341 0.696289 23.7988 1 23.7988H5.84863C6.40088 23.7988 6.84863 24.2466 6.84863 24.7988C6.84863 25.3511 6.40088 25.7988 5.84863 25.7988H2V44.7988C2 47.0078 3.79102 48.7988 6 48.7988H44C46.209 48.7988 48 47.0078 48 44.7988V25.7988ZM9 28.2988C9 27.4702 9.67139 26.7988 10.5 26.7988C11.3286 26.7988 12 27.4702 12 28.2988C12 29.1274 11.3286 29.7988 10.5 29.7988C9.67139 29.7988 9 29.1274 9 28.2988ZM12.5 31.7988C11.6714 31.7988 11 32.4702 11 33.2988C11 34.1274 11.6714 34.7988 12.5 34.7988C13.3286 34.7988 14 34.1274 14 33.2988C14 32.4702 13.3286 31.7988 12.5 31.7988ZM9 38.2988C9 37.4702 9.67139 36.7988 10.5 36.7988C11.3286 36.7988 12 37.4702 12 38.2988C12 38.6743 11.8623 39.0176 11.6343 39.2808C11.3589 39.5981 10.9531 39.7988 10.5 39.7988C9.67139 39.7988 9 39.1274 9 38.2988ZM15.5 26.7988C14.6714 26.7988 14 27.4702 14 28.2988C14 29.1274 14.6714 29.7988 15.5 29.7988C16.3286 29.7988 17 29.1274 17 28.2988C17 28.063 16.9453 27.8398 16.8481 27.6411C16.728 27.395 16.5425 27.1865 16.314 27.0386C16.0796 26.8867 15.8003 26.7988 15.5 26.7988ZM16 33.2988C16 32.4702 16.6714 31.7988 17.5 31.7988C18.3286 31.7988 19 32.4702 19 33.2988C19 34.1274 18.3286 34.7988 17.5 34.7988C17.0474 34.7988 16.6416 34.5986 16.3667 34.2812C16.1382 34.0181 16 33.6748 16 33.2988ZM15.5 36.7988C14.6714 36.7988 14 37.4702 14 38.2988C14 39.1274 14.6714 39.7988 15.5 39.7988C15.6875 39.7988 15.8672 39.7646 16.0322 39.7017L16.0469 39.6958C16.0771 39.6846 16.1069 39.6714 16.1362 39.6577C16.1699 39.6421 16.2031 39.625 16.2354 39.6069C16.3643 39.5342 16.4814 39.4429 16.5835 39.3364C16.6387 39.2788 16.6895 39.2163 16.7349 39.1504C16.7881 39.0732 16.8345 38.9907 16.873 38.9043C16.9146 38.8101 16.9468 38.7104 16.9683 38.6069C16.9888 38.5073 17 38.4043 17 38.2988C17 37.4702 16.3286 36.7988 15.5 36.7988ZM19 28.2988C19 27.4702 19.6714 26.7988 20.5 26.7988C21.3286 26.7988 22 27.4702 22 28.2988C22 28.5156 21.9541 28.7217 21.8716 28.9077C21.8447 28.9678 21.814 29.0259 21.7798 29.082C21.7046 29.2046 21.6123 29.3154 21.5063 29.4111C21.2402 29.6523 20.8872 29.7988 20.5 29.7988C19.6714 29.7988 19 29.1274 19 28.2988ZM22.5 31.7988C21.6714 31.7988 21 32.4702 21 33.2988C21 34.1274 21.6714 34.7988 22.5 34.7988C22.8672 34.7988 23.2031 34.667 23.4639 34.4482C23.7915 34.1733 24 33.7603 24 33.2988C24 33.0176 23.9229 32.7544 23.7881 32.5298C23.6484 32.2964 23.4473 32.104 23.2065 31.9756C23.1045 31.9209 22.9951 31.8774 22.8809 31.8477C22.7593 31.8159 22.6313 31.7988 22.5 31.7988ZM19 38.2988C19 37.4702 19.6714 36.7988 20.5 36.7988C21.3286 36.7988 22 37.4702 22 38.2988C22 39.1274 21.3286 39.7988 20.5 39.7988C19.6714 39.7988 19 39.1274 19 38.2988ZM13.5 41.7988C13.0918 41.7988 12.7222 41.9614 12.4517 42.2256C12.1729 42.498 12 42.8784 12 43.2988C12 44.1274 12.6714 44.7988 13.5 44.7988H36.5C37.3286 44.7988 38 44.1274 38 43.2988C38 43.1016 37.9619 42.9136 37.8931 42.7412C37.8213 42.5625 37.7163 42.4009 37.5859 42.2642C37.5117 42.186 37.4287 42.1162 37.3389 42.0557C37.3159 42.04 37.2925 42.0254 37.2686 42.0112C37.231 41.9883 37.1914 41.9668 37.1514 41.9473C37.0308 41.8892 36.9014 41.8467 36.7656 41.8223C36.7251 41.8149 36.6841 41.8091 36.6421 41.8052C36.5952 41.8008 36.5479 41.7988 36.5 41.7988H13.5ZM24 28.2988C24 27.4702 24.6714 26.7988 25.5 26.7988C25.9712 26.7988 26.3916 27.0161 26.6665 27.356C26.7441 27.4521 26.8105 27.5581 26.8633 27.6719L26.8867 27.7266C26.8999 27.7588 26.9121 27.791 26.9233 27.8237C26.9731 27.9727 27 28.1323 27 28.2988C27 29.1274 26.3286 29.7988 25.5 29.7988C24.6714 29.7988 24 29.1274 24 28.2988ZM27.5 31.7988C26.6714 31.7988 26 32.4702 26 33.2988C26 34.1274 26.6714 34.7988 27.5 34.7988C27.8809 34.7988 28.2285 34.6572 28.4927 34.4233C28.8037 34.1484 29 33.7466 29 33.2988C29 32.4702 28.3286 31.7988 27.5 31.7988ZM24 38.2988C24 37.4702 24.6714 36.7988 25.5 36.7988C26.3286 36.7988 27 37.4702 27 38.2988C27 39.1274 26.3286 39.7988 25.5 39.7988C24.6714 39.7988 24 39.1274 24 38.2988ZM30.5 26.7988C29.6714 26.7988 29 27.4702 29 28.2988C29 29.1274 29.6714 29.7988 30.5 29.7988C31.3286 29.7988 32 29.1274 32 28.2988C32 27.4702 31.3286 26.7988 30.5 26.7988ZM31 33.2988C31 32.4702 31.6714 31.7988 32.5 31.7988C33.3286 31.7988 34 32.4702 34 33.2988C34 34.1274 33.3286 34.7988 32.5 34.7988C31.6714 34.7988 31 34.1274 31 33.2988ZM29.4131 37.2651C29.1572 37.5342 29 37.8979 29 38.2988C29 39.1274 29.6714 39.7988 30.5 39.7988C31.3286 39.7988 32 39.1274 32 38.2988C32 37.4702 31.3286 36.7988 30.5 36.7988C30.3623 36.7988 30.2285 36.8174 30.1021 36.8521C30.0566 36.8647 30.0122 36.8794 29.9688 36.896L29.9067 36.9209C29.8735 36.9351 29.8408 36.9507 29.8086 36.9673C29.6606 37.0444 29.5269 37.1455 29.4131 37.2651ZM34 28.2988C34 27.4702 34.6714 26.7988 35.5 26.7988C36.3286 26.7988 37 27.4702 37 28.2988C37 29.1274 36.3286 29.7988 35.5 29.7988C34.6714 29.7988 34 29.1274 34 28.2988ZM37.5 31.7988C37.1821 31.7988 36.8872 31.8979 36.6445 32.0664C36.2549 32.3374 36 32.7881 36 33.2988C36 34.1274 36.6714 34.7988 37.5 34.7988C38.3286 34.7988 39 34.1274 39 33.2988C39 32.4702 38.3286 31.7988 37.5 31.7988ZM34 38.2988C34 37.4702 34.6714 36.7988 35.5 36.7988C36.3286 36.7988 37 37.4702 37 38.2988C37 39.1274 36.3286 39.7988 35.5 39.7988C34.6714 39.7988 34 39.1274 34 38.2988ZM40.5 26.7988C39.6714 26.7988 39 27.4702 39 28.2988C39 29.1274 39.6714 29.7988 40.5 29.7988C40.9546 29.7988 41.3618 29.5967 41.6367 29.2778C41.7256 29.1748 41.8008 29.0591 41.8594 28.9341C41.8936 28.8613 41.9219 28.7852 41.9438 28.7061C41.9805 28.5767 42 28.4399 42 28.2988C42 27.4702 41.3286 26.7988 40.5 26.7988ZM41.5977 32.1001C41.8486 31.9111 42.1611 31.7988 42.5 31.7988C43.3286 31.7988 44 32.4702 44 33.2988C44 33.7563 43.7954 34.1655 43.4727 34.4404C43.2109 34.6641 42.8711 34.7988 42.5 34.7988C41.6714 34.7988 41 34.1274 41 33.2988C41 32.8091 41.2349 32.374 41.5977 32.1001ZM40.5 36.7988C39.6714 36.7988 39 37.4702 39 38.2988C39 39.1274 39.6714 39.7988 40.5 39.7988C41.3286 39.7988 42 39.1274 42 38.2988C42 37.4702 41.3286 36.7988 40.5 36.7988ZM13 6.79883V8.79883H35V6.79883H13ZM14 18.7988V16.7988H36V18.7988H14ZM14 11.7988V13.7988H36V11.7988H14Z" fill="#FFBA00"/>
</svg>
