<svg width="50" height="50" viewBox="0 0 50 50" fill="none" xmlns="http://www.w3.org/2000/svg">
<path d="M5 27.9995V42.9995H45V27.9995" stroke="#FFBA00" stroke-width="2" stroke-linecap="round" stroke-linejoin="round"/>
<path d="M5 22.9995V20.9995C5 18.7904 6.79086 16.9995 9 16.9995H41C43.2091 16.9995 45 18.7904 45 20.9995V22.9995L40.8524 25.3695C39.121 26.359 36.9671 26.2249 35.3718 25.0283L33.4692 23.6014C31.4786 22.1084 28.6931 22.3064 26.9336 24.0659L26.5355 24.464C24.5829 26.4166 21.4171 26.4166 19.4645 24.464V24.464C18.5268 23.5263 17.255 22.9995 15.9289 22.9995H5Z" stroke="#FFBA00" stroke-width="2"/>
<path d="M9.97382 5.99951L8.15888 10.2511C7.60308 11.5531 8.55833 12.9995 9.97399 12.9995V12.9995C11.3897 12.9995 12.345 11.553 11.7891 10.251L9.97382 5.99951Z" stroke="#FFBA00" stroke-width="2" stroke-linecap="round" stroke-linejoin="round"/>
<path d="M19.9738 5.99951L18.1589 10.2511C17.6031 11.5531 18.5583 12.9995 19.974 12.9995V12.9995C21.3897 12.9995 22.345 11.553 21.7891 10.251L19.9738 5.99951Z" stroke="#FFBA00" stroke-width="2" stroke-linecap="round" stroke-linejoin="round"/>
<path d="M28.9738 5.99951L27.1589 10.2511C26.6031 11.5531 27.5583 12.9995 28.974 12.9995V12.9995C30.3897 12.9995 31.345 11.553 30.7891 10.251L28.9738 5.99951Z" stroke="#FFBA00" stroke-width="2" stroke-linecap="round" stroke-linejoin="round"/>
<path d="M38.9738 5.99951L37.1589 10.2511C36.6031 11.5531 37.5583 12.9995 38.974 12.9995V12.9995C40.3897 12.9995 41.345 11.553 40.7891 10.251L38.9738 5.99951Z" stroke="#FFBA00" stroke-width="2" stroke-linecap="round" stroke-linejoin="round"/>
</svg>
