<svg width="48" height="51" viewBox="0 0 48 51" fill="none" xmlns="http://www.w3.org/2000/svg">
<path fill-rule="evenodd" clip-rule="evenodd" d="M41.7071 7.50586C41.3165 7.89648 40.6837 7.89648 40.2931 7.50586C39.9024 7.11523 39.9024 6.48242 40.2931 6.0918L45.2931 1.0918C45.6837 0.701172 46.3165 0.701172 46.7071 1.0918C46.7613 1.146 46.8077 1.20459 46.8468 1.26611C46.9024 1.35449 46.943 1.4502 46.9684 1.54883C47.0538 1.87988 46.9664 2.24658 46.7071 2.50586L41.7071 7.50586ZM39.0001 8.79883H9.00009C8.89463 8.79883 8.79306 8.81494 8.69736 8.84521C8.60703 8.87402 8.52207 8.91504 8.44492 8.9668C8.29355 9.06787 8.17148 9.20947 8.09384 9.37549C8.06504 9.43652 8.04257 9.50098 8.02695 9.56836C8.00937 9.64258 8.00009 9.71973 8.00009 9.79883V33.7988C8.00009 39.1953 8.51377 44.5913 9.5416 49.9858C9.55478 50.0552 9.5748 50.1216 9.60117 50.1846C9.62949 50.2524 9.66513 50.3169 9.70713 50.376C9.754 50.4419 9.8082 50.502 9.86924 50.5547C10.046 50.708 10.276 50.7988 10.524 50.7988H41.0001C41.6505 50.7988 42.128 50.1875 41.9703 49.5562C40.6563 44.3018 40.0001 39.0498 40.0001 33.7988V9.79883C40.0001 9.24658 39.5523 8.79883 39.0001 8.79883ZM10.0001 33.7988V10.7988H38.0001V33.7988C38.0001 38.8003 38.5772 43.8008 39.7311 48.7988H11.3556C10.4518 43.7979 10.0001 38.7983 10.0001 33.7988ZM42.1061 14.2461C42.3526 14.7402 42.9537 14.9404 43.4474 14.6934L47.4474 12.6934C47.9415 12.4463 48.1417 11.8457 47.8946 11.3521C47.6476 10.8579 47.047 10.6577 46.5533 10.9048L42.5533 12.9048C42.0592 13.1514 41.859 13.7524 42.1061 14.2461ZM0.804294 15.7798C0.26279 15.6714 -0.0887724 15.1445 0.019626 14.603C0.128024 14.0615 0.65488 13.71 1.19638 13.8184L6.19638 14.8184C6.73789 14.9268 7.08896 15.4536 6.98105 15.9951C6.94248 16.1885 6.85019 16.3574 6.72324 16.4902C6.49472 16.729 6.15244 16.8491 5.80429 16.7798L0.804294 15.7798ZM41.0196 36.603C40.9112 37.1445 41.2628 37.6714 41.8043 37.7798L46.8043 38.7798C47.3458 38.8877 47.8727 38.5366 47.9811 37.9951C48.089 37.4536 47.7379 36.9268 47.1964 36.8184L42.1964 35.8184C41.6549 35.71 41.128 36.0615 41.0196 36.603ZM5.55478 8.9668C6.01426 9.27344 6.13877 9.89404 5.83213 10.3535C5.6539 10.6206 5.36924 10.7744 5.07187 10.7964C4.85801 10.812 4.63779 10.7593 4.44541 10.6309L1.44541 8.63086C0.985935 8.32471 0.861911 7.70361 1.16806 7.24414C1.18467 7.21875 1.20273 7.19434 1.22129 7.1709C1.25986 7.12354 1.30185 7.08008 1.34677 7.04102C1.42783 6.97119 1.51865 6.91602 1.61533 6.87598C1.76718 6.81299 1.9332 6.7876 2.09775 6.80371L2.1666 6.81299C2.19394 6.81738 2.22129 6.82324 2.24814 6.83008C2.28086 6.83838 2.31308 6.84863 2.34482 6.86035C2.37363 6.87061 2.40195 6.88281 2.42978 6.896C2.47226 6.91602 2.51426 6.93994 2.55478 6.9668L5.55478 8.9668ZM47.8321 48.3535C48.1388 47.894 48.0143 47.2734 47.5548 46.9668L44.5548 44.9668C44.3956 44.8608 44.2174 44.8066 44.0392 44.7998C43.7032 44.7866 43.3687 44.9438 43.1681 45.2441C42.8619 45.7036 42.9859 46.3247 43.4454 46.6309L46.4454 48.6309C46.9049 48.9375 47.526 48.813 47.8321 48.3535ZM12.8946 5.35205C13.1417 5.8457 12.9415 6.44629 12.4474 6.69336C11.9537 6.94043 11.3526 6.74023 11.1061 6.24609L9.10605 2.24609C8.96396 1.96191 8.96982 1.64258 9.09433 1.37549C9.18662 1.17822 9.34336 1.00928 9.55332 0.904785C10.047 0.657715 10.6476 0.85791 10.8946 1.35205L12.8946 5.35205ZM1.20029 48.3989C1.53134 48.8408 2.1583 48.9302 2.60019 48.5991L6.60019 45.5991C7.04209 45.2676 7.13144 44.6406 6.80039 44.1987C6.61924 43.9575 6.35019 43.8213 6.07138 43.8013C5.83945 43.7847 5.60068 43.8486 5.4 43.999L1.4 46.999C0.958103 47.3301 0.868747 47.957 1.20029 48.3989ZM1.00009 31.0488C0.447849 31.0488 9.47782e-05 30.6011 9.47782e-05 30.0488C9.47782e-05 29.4966 0.447849 29.0488 1.00009 29.0488H4.00009C4.55234 29.0488 5.00009 29.4966 5.00009 30.0488C5.00009 30.6011 4.55234 31.0488 4.00009 31.0488H1.00009ZM13.0001 14.7988V16.7988H35.0001V14.7988H13.0001ZM13.0001 21.7988V19.7988H35.0001V21.7988H13.0001ZM13.0001 29.7988V31.7988H35.0001V29.7988H13.0001ZM13.0001 26.7988V24.7988H35.0001V26.7988H13.0001ZM13.0001 34.7988V36.7988H35.0001V34.7988H13.0001Z" fill="#FFBA00"/>
</svg>
