<svg width="50" height="51" viewBox="0 0 50 51" fill="none" xmlns="http://www.w3.org/2000/svg">
<path d="M49 23.2534L49.9922 23.3781C49.9974 23.3368 50 23.2951 50 23.2534H49ZM48.978 23.4282L47.9858 23.3035C47.9468 23.6138 48.0553 23.9246 48.2789 24.1432L48.978 23.4282ZM49 23.4497H50C50 23.1806 49.8915 22.9228 49.6991 22.7347L49 23.4497ZM48.6943 29.21L49.6136 29.6037C49.6177 29.5939 49.6218 29.5841 49.6257 29.5742L48.6943 29.21ZM42.1055 44.5918L41.1862 44.198L41.1825 44.207L42.1055 44.5918ZM15.3779 17.9956L16.0752 18.7124C16.0787 18.709 16.0821 18.7056 16.0856 18.7022L15.3779 17.9956ZM29.7344 3.61719L30.4381 2.90671C30.0468 2.51916 29.4158 2.52091 29.0267 2.91062L29.7344 3.61719ZM32.0474 5.9082L32.7545 5.20109L32.7511 5.19773L32.0474 5.9082ZM33.0073 8.2207L34.003 8.314C34.0059 8.28299 34.0073 8.25185 34.0073 8.2207H33.0073ZM32.9419 8.91895L33.921 9.12247C33.9285 9.08606 33.9341 9.04926 33.9375 9.01224L32.9419 8.91895ZM30.8691 18.8901L29.8901 18.6866C29.8288 18.9812 29.9035 19.2878 30.0934 19.5212C30.2833 19.7546 30.5682 19.8901 30.8691 19.8901V18.8901ZM1 47.2534H0C0 47.8057 0.447715 48.2534 1 48.2534L1 47.2534ZM9.72705 47.2534V48.2534C10.2793 48.2534 10.7271 47.8057 10.7271 47.2534H9.72705ZM1 21.0718V20.0718C0.447715 20.0718 0 20.5195 0 21.0718H1ZM9.72705 21.0718H10.7271C10.7271 20.5195 10.2793 20.0718 9.72705 20.0718V21.0718ZM50 23.2534C50 20.3011 47.5883 17.8901 44.6362 17.8901V19.8901C46.484 19.8901 48 21.4059 48 23.2534H50ZM49.9702 23.5529L49.9922 23.3781L48.0078 23.1287L47.9858 23.3035L49.9702 23.5529ZM49.6991 22.7347L49.6771 22.7132L48.2789 24.1432L48.3009 24.1647L49.6991 22.7347ZM50 27.6172V23.4497H48V27.6172H50ZM49.6257 29.5742C49.8637 28.9655 50 28.3189 50 27.6172H48C48 28.0503 47.9176 28.4505 47.763 28.8458L49.6257 29.5742ZM43.0247 44.9855L49.6136 29.6037L47.7751 28.8162L41.1863 44.198L43.0247 44.9855ZM38.0908 48.2534C40.3142 48.2534 42.2218 46.9118 43.0285 44.9766L41.1825 44.207C40.6796 45.4134 39.4895 46.2534 38.0908 46.2534V48.2534ZM18.4546 48.2534H38.0908V46.2534H18.4546V48.2534ZM13.0908 42.8901C13.0908 45.8425 15.5025 48.2534 18.4546 48.2534V46.2534C16.6068 46.2534 15.0908 44.7376 15.0908 42.8901H13.0908ZM13.0908 21.0718V42.8901H15.0908V21.0718H13.0908ZM14.6806 17.2788C13.6815 18.2507 13.0908 19.5994 13.0908 21.0718H15.0908C15.0908 20.1437 15.4601 19.3108 16.0752 18.7124L14.6806 17.2788ZM29.0267 2.91062L14.6703 17.289L16.0856 18.7022L30.442 4.32375L29.0267 2.91062ZM32.7511 5.19773L30.4381 2.90671L29.0307 4.32766L31.3436 6.61868L32.7511 5.19773ZM34.0073 8.2207C34.0073 7.04944 33.5226 5.9692 32.7545 5.2011L31.3403 6.61531C31.7499 7.02494 32.0073 7.60291 32.0073 8.2207H34.0073ZM33.9375 9.01224L34.003 8.314L32.0117 8.12741L31.9463 8.82565L33.9375 9.01224ZM31.8482 19.0937L33.921 9.12247L31.9628 8.71542L29.8901 18.6866L31.8482 19.0937ZM44.6362 17.8901H30.8691V19.8901H44.6362V17.8901ZM1 48.2534H9.72705V46.2534H1V48.2534ZM0 21.0718V47.2534H2V21.0718H0ZM9.72705 20.0718H1V22.0718H9.72705V20.0718ZM10.7271 47.2534V21.0718H8.72705V47.2534H10.7271Z" fill="#FFBA00"/>
</svg>
